# Rhino

mtllib y.mtl
usemtl Plaster (1)
v 1.4265847206115723 0.46352550387382507 -70
v 1.4265847206115723 -0.46352550387382507 -70
v 1.4265847206115723 0.46352550387382507 0
v 1.4265847206115723 -0.46352550387382507 0
v 1.3991732597351074 0.45461899042129517 -70.292633056640625
v 1.3991732597351074 -0.45461899042129517 -70.292633056640625
v 1.3991732597351074 0.45461899042129517 0.2926354706287384
v 1.3991732597351074 -0.45461899042129517 0.2926354706287384
v 1.3179924488067627 0.42824172973632813 -70.574028015136719
v 1.3179924488067627 -0.42824172973632813 -70.574028015136719
v 1.3179924488067627 0.42824172973632813 0.57402515411376953
v 1.3179924488067627 -0.42824172973632813 0.57402515411376953
v 1.1861618757247925 0.38540735840797424 -70.833358764648438
v 1.1861618757247925 -0.38540735840797424 -70.833358764648438
v 1.1861618757247925 0.38540735840797424 0.8333553671836853
v 1.1861618757247925 -0.38540735840797424 0.8333553671836853
v 1.0087476968765259 0.32776203751564026 -71.060661315917969
v 1.0087476968765259 -0.32776203751564026 -71.060661315917969
v 1.0087476968765259 0.32776203751564026 1.0606601238250732
v 1.0087476968765259 -0.32776203751564026 1.0606601238250732
v 0.88167786598205566 1.2135255336761475 -70
v 0.88167786598205566 -1.2135255336761475 -70
v 0.88167786598205566 1.2135255336761475 0
v 0.88167786598205566 -1.2135255336761475 0
v 0.86473667621612549 1.1902079582214355 -70.292633056640625
v 0.86473667621612549 -1.1902079582214355 -70.292633056640625
v 0.86473667621612549 1.1902079582214355 0.2926354706287384
v 0.86473667621612549 -1.1902079582214355 0.2926354706287384
v 0.81456410884857178 1.1211514472961426 -70.574028015136719
v 0.81456410884857178 -1.1211514472961426 -70.574028015136719
v 0.81456410884857178 1.1211514472961426 0.57402515411376953
v 0.81456410884857178 -1.1211514472961426 0.57402515411376953
v 0.79256802797317505 0.25752097368240356 -71.247207641601562
v 0.79256802797317505 -0.25752097368240356 -71.247207641601562
v 0.79256802797317505 0.25752097368240356 1.2472044229507446
v 0.79256802797317505 -0.25752097368240356 1.2472044229507446
v 0.73308837413787842 1.0090095996856689 -70.833358764648438
v 0.73308837413787842 -1.0090095996856689 -70.833358764648438
v 0.73308837413787842 1.0090095996856689 0.8333553671836853
v 0.73308837413787842 -1.0090095996856689 0.8333553671836853
v 0.62344038486480713 0.85809212923049927 -71.060661315917969
v 0.62344038486480713 -0.85809212923049927 -71.060661315917969
v 0.62344038486480713 0.85809212923049927 1.0606601238250732
v 0.62344038486480713 -0.85809212923049927 1.0606601238250732
v 0.54593032598495483 0.17738352715969086 -71.385818481445313
v 0.54593032598495483 -0.17738352715969086 -71.385818481445313
v 0.54593032598495483 0.17738352715969086 1.3858193159103394
v 0.54593032598495483 -0.17738352715969086 1.3858193159103394
v 0.48983398079872131 0.6741986870765686 -71.247207641601562
v 0.48983398079872131 -0.6741986870765686 -71.247207641601562
v 0.48983398079872131 0.6741986870765686 1.2472044229507446
v 0.48983398079872131 -0.6741986870765686 1.2472044229507446
v 0.33740350604057312 0.46439611911773682 -71.385818481445313
v 0.33740350604057312 -0.46439611911773682 -71.385818481445313
v 0.33740350604057312 0.46439611911773682 1.3858193159103394
v 0.33740350604057312 -0.46439611911773682 1.3858193159103394
v 0.27831286191940308 0.090429343283176422 -71.471176147460938
v 0.27831286191940308 -0.090429343283176422 -71.471176147460938
v 0.27831286191940308 0.090429343283176422 1.4711779356002808
v 0.27831286191940308 -0.090429343283176422 1.4711779356002808
v 0.17200681567192078 0.23674708604812622 -71.471176147460938
v 0.17200681567192078 -0.23674708604812622 -71.471176147460938
v 0.17200681567192078 0.23674708604812622 1.4711779356002808
v 0.17200681567192078 -0.23674708604812622 1.4711779356002808
v 0 -1.5 -70
v 0 -1.5 0
v 0 -1.4711779356002808 -70.292633056640625
v 0 -1.4711779356002808 0.2926354706287384
v 0 -1.3858193159103394 -70.574028015136719
v 0 -1.3858193159103394 0.57402515411376953
v 0 -1.2472044229507446 -70.833358764648438
v 0 -1.2472044229507446 0.8333553671836853
v 0 -1.0606601238250732 -71.060661315917969
v 0 -1.0606601238250732 1.0606601238250732
v 0 -0.8333553671836853 -71.247207641601562
v 0 -0.8333553671836853 1.2472044229507446
v 0 -0.57402515411376953 -71.385818481445313
v 0 -0.57402515411376953 1.3858193159103394
v 0 -0.2926354706287384 -71.471176147460938
v 0 -0.2926354706287384 1.4711779356002808
v 0 0 -71.5
v 0 1.5 -70
v 0 1.5 0
v 0 0 1.5
v 0 1.4711779356002808 -70.292633056640625
v 0 1.4711779356002808 0.2926354706287384
v 0 1.3858193159103394 -70.574028015136719
v 0 1.3858193159103394 0.57402515411376953
v 0 1.2472044229507446 -70.833358764648438
v 0 1.2472044229507446 0.8333553671836853
v 0 1.0606601238250732 -71.060661315917969
v 0 1.0606601238250732 1.0606601238250732
v 0 0.8333553671836853 -71.247207641601562
v 0 0.8333553671836853 1.2472044229507446
v 0 0.57402515411376953 -71.385818481445313
v 0 0.57402515411376953 1.3858193159103394
v 0 0.2926354706287384 -71.471176147460938
v 0 0.2926354706287384 1.4711779356002808
v -0.17200681567192078 0.23674708604812622 -71.471176147460938
v -0.17200681567192078 -0.23674708604812622 -71.471176147460938
v -0.17200681567192078 0.23674708604812622 1.4711779356002808
v -0.17200681567192078 -0.23674708604812622 1.4711779356002808
v -0.27831286191940308 0.090429343283176422 -71.471176147460938
v -0.27831286191940308 -0.090429343283176422 -71.471176147460938
v -0.27831286191940308 0.090429343283176422 1.4711779356002808
v -0.27831286191940308 -0.090429343283176422 1.4711779356002808
v -0.33740350604057312 0.46439611911773682 -71.385818481445313
v -0.33740350604057312 -0.46439611911773682 -71.385818481445313
v -0.33740350604057312 0.46439611911773682 1.3858193159103394
v -0.33740350604057312 -0.46439611911773682 1.3858193159103394
v -0.48983398079872131 0.6741986870765686 -71.247207641601562
v -0.48983398079872131 -0.6741986870765686 -71.247207641601562
v -0.48983398079872131 0.6741986870765686 1.2472044229507446
v -0.48983398079872131 -0.6741986870765686 1.2472044229507446
v -0.54593032598495483 0.17738352715969086 -71.385818481445313
v -0.54593032598495483 -0.17738352715969086 -71.385818481445313
v -0.54593032598495483 0.17738352715969086 1.3858193159103394
v -0.54593032598495483 -0.17738352715969086 1.3858193159103394
v -0.62344038486480713 0.85809212923049927 -71.060661315917969
v -0.62344038486480713 -0.85809212923049927 -71.060661315917969
v -0.62344038486480713 0.85809212923049927 1.0606601238250732
v -0.62344038486480713 -0.85809212923049927 1.0606601238250732
v -0.73308837413787842 1.0090095996856689 -70.833358764648438
v -0.73308837413787842 -1.0090095996856689 -70.833358764648438
v -0.73308837413787842 1.0090095996856689 0.8333553671836853
v -0.73308837413787842 -1.0090095996856689 0.8333553671836853
v -0.79256802797317505 0.25752097368240356 -71.247207641601562
v -0.79256802797317505 -0.25752097368240356 -71.247207641601562
v -0.79256802797317505 0.25752097368240356 1.2472044229507446
v -0.79256802797317505 -0.25752097368240356 1.2472044229507446
v -0.81456410884857178 1.1211514472961426 -70.574028015136719
v -0.81456410884857178 -1.1211514472961426 -70.574028015136719
v -0.81456410884857178 1.1211514472961426 0.57402515411376953
v -0.81456410884857178 -1.1211514472961426 0.57402515411376953
v -0.86473667621612549 1.1902079582214355 -70.292633056640625
v -0.86473667621612549 -1.1902079582214355 -70.292633056640625
v -0.86473667621612549 1.1902079582214355 0.2926354706287384
v -0.86473667621612549 -1.1902079582214355 0.2926354706287384
v -0.88167786598205566 1.2135255336761475 -70
v -0.88167786598205566 -1.2135255336761475 -70
v -0.88167786598205566 1.2135255336761475 0
v -0.88167786598205566 -1.2135255336761475 0
v -1.0087476968765259 0.32776203751564026 -71.060661315917969
v -1.0087476968765259 -0.32776203751564026 -71.060661315917969
v -1.0087476968765259 0.32776203751564026 1.0606601238250732
v -1.0087476968765259 -0.32776203751564026 1.0606601238250732
v -1.1861618757247925 0.38540735840797424 -70.833358764648438
v -1.1861618757247925 -0.38540735840797424 -70.833358764648438
v -1.1861618757247925 0.38540735840797424 0.8333553671836853
v -1.1861618757247925 -0.38540735840797424 0.8333553671836853
v -1.3179924488067627 0.42824172973632813 -70.574028015136719
v -1.3179924488067627 -0.42824172973632813 -70.574028015136719
v -1.3179924488067627 0.42824172973632813 0.57402515411376953
v -1.3179924488067627 -0.42824172973632813 0.57402515411376953
v -1.3991732597351074 0.45461899042129517 -70.292633056640625
v -1.3991732597351074 -0.45461899042129517 -70.292633056640625
v -1.3991732597351074 0.45461899042129517 0.2926354706287384
v -1.3991732597351074 -0.45461899042129517 0.2926354706287384
v -1.4265847206115723 0.46352550387382507 -70
v -1.4265847206115723 -0.46352550387382507 -70
v -1.4265847206115723 0.46352550387382507 0
v -1.4265847206115723 -0.46352550387382507 0
vn 0.94991040229797363 0.30864453315734863 -0.049079388380050659
vn 0.94991040229797363 -0.30864453315734863 -0.049079388380050659
vn 0.94991040229797363 0.30864459276199341 0.049078986048698425
vn 0.94991040229797363 -0.30864459276199341 0.049078986048698425
vn 0.93274992704391479 0.30306878685951233 -0.19526104629039764
vn 0.93274992704391479 -0.30306878685951233 -0.19526104629039764
vn 0.93274950981140137 0.30306866765022278 0.19526320695877075
vn 0.93274950981140137 -0.30306866765022278 0.19526319205760956
vn 0.87854295969009399 0.2854558527469635 -0.38298460841178894
vn 0.87854295969009399 -0.28545588254928589 -0.38298463821411133
vn 0.87854182720184326 0.28545552492141724 0.38298740983009338
vn 0.87854182720184326 -0.28545552492141724 0.38298740983009338
vn 0.7905426025390625 0.2568628191947937 -0.55593514442443848
vn 0.7905426025390625 -0.2568628191947937 -0.55593514442443848
vn 0.79054361581802368 0.25686317682266235 0.55593347549438477
vn 0.79054361581802368 -0.25686317682266235 0.55593347549438477
vn 0.67217475175857544 0.21840278804302216 -0.70744705200195313
vn 0.67217475175857544 -0.21840278804302216 -0.70744705200195313
vn 0.67217451333999634 0.21840271353721619 0.70744729042053223
vn 0.67217445373535156 -0.21840271353721619 0.707447350025177
vn 0.58707690238952637 0.80804198980331421 -0.049079358577728271
vn 0.58707690238952637 -0.80804204940795898 -0.049079354852437973
vn 0.58707690238952637 0.80804204940795898 0.049078956246376038
vn 0.58707690238952637 -0.80804204940795898 0.049078956246376038
vn 0.57647114992141724 0.79344445466995239 -0.19526104629039764
vn 0.57647114992141724 -0.79344445466995239 -0.19526104629039764
vn 0.57647091150283813 0.79344409704208374 0.19526322185993195
vn 0.57647091150283813 -0.79344409704208374 0.19526322185993195
vn 0.54296934604644775 0.74733322858810425 -0.3829846978187561
vn 0.54296934604644775 -0.74733322858810425 -0.3829846978187561
vn 0.54296869039535522 0.74733227491378784 0.38298749923706055
vn 0.54296869039535522 -0.74733227491378784 0.38298749923706055
vn 0.52801734209060669 0.17156320810317993 -0.83172339200973511
vn 0.52801734209060669 -0.17156320810317993 -0.83172339200973511
vn 0.52802002429962158 0.17156407237052917 0.83172148466110229
vn 0.52802002429962158 -0.17156407237052917 0.83172148466110229
vn 0.48858216404914856 0.67247569561004639 -0.55593514442443848
vn 0.48858219385147095 -0.67247569561004639 -0.55593514442443848
vn 0.48858281970024109 0.67247658967971802 0.55593347549438477
vn 0.48858281970024109 -0.67247658967971802 0.55593347549438477
vn 0.4154268205165863 0.57178598642349243 -0.70744705200195313
vn 0.41542679071426392 -0.57178598642349243 -0.7074471116065979
vn 0.41542667150497437 0.57178574800491333 0.707447350025177
vn 0.41542667150497437 -0.57178574800491333 0.707447350025177
vn 0.36363682150840759 0.11815273761749268 -0.92401742935180664
vn 0.36363682150840759 -0.11815273761749268 -0.92401742935180664
vn 0.36364349722862244 0.11815490573644638 0.92401450872421265
vn 0.36364349722862244 -0.11815490573644638 0.92401450872421265
vn 0.32633259892463684 0.44915834069252014 -0.83172339200973511
vn 0.32633262872695923 -0.44915834069252014 -0.83172339200973511
vn 0.32633432745933533 0.44916063547134399 0.83172148466110229
vn 0.32633432745933533 -0.44916063547134399 0.83172148466110229
vn 0.22473990917205811 0.30932793021202087 -0.92401742935180664
vn 0.22473989427089691 -0.30932793021202087 -0.92401742935180664
vn 0.22474400699138641 0.30933359265327454 0.92401450872421265
vn 0.22474400699138641 -0.30933359265327454 0.92401450872421265
vn 0.18536315858364105 0.060228131711483002 -0.98082262277603149
vn 0.18536315858364105 -0.060228131711483002 -0.98082262277603149
vn 0.18536175787448883 0.060227677226066589 0.98082292079925537
vn 0.18536175787448883 -0.060227677226066589 0.98082292079925537
vn 0.11456073075532913 0.15767930448055267 -0.98082268238067627
vn 0.11456073075532913 -0.15767930448055267 -0.98082268238067627
vn 0.11455986648797989 0.15767811238765717 0.98082292079925537
vn 0.11455986648797989 -0.15767811238765717 0.98082292079925537
vn 0 -0.99879485368728638 -0.049079343676567078
vn 0 -0.99879491329193115 0.049078937619924545
vn 0 -0.98075133562088013 -0.19526104629039764
vn 0 -0.98075085878372192 0.19526322185993195
vn 0 -0.92375469207763672 -0.38298472762107849
vn 0 -0.92375349998474121 0.38298749923706055
vn 0 -0.8312256932258606 -0.55593514442443848
vn 0 -0.83122676610946655 0.55593347549438477
vn 0 -0.70676636695861816 -0.70744705200195313
vn 0 -0.70676612854003906 0.70744729042053223
vn 0 -0.55519026517868042 -0.83172339200973511
vn 0 -0.55519312620162964 0.83172148466110229
vn 0 -0.38235035538673401 -0.92401742935180664
vn 0 -0.3823573887348175 0.92401450872421265
vn 0 -0.19490234553813934 -0.98082262277603149
vn 0 -0.19490087032318115 0.98082292079925537
vn 7.4904316083035383E-10 -7.4904316083035383E-10 -1
vn 0 0.99879485368728638 -0.049079343676567078
vn 0 0.99879491329193115 0.049078937619924545
vn 0 3.7452133061499637E-10 1
vn 0 0.98075133562088013 -0.19526104629039764
vn 0 0.98075085878372192 0.19526322185993195
vn 0 0.92375469207763672 -0.38298472762107849
vn 0 0.92375349998474121 0.38298749923706055
vn 0 0.8312256932258606 -0.55593514442443848
vn 0 0.83122676610946655 0.55593347549438477
vn 0 0.70676636695861816 -0.70744705200195313
vn 0 0.70676612854003906 0.70744729042053223
vn 0 0.55519026517868042 -0.83172339200973511
vn 0 0.55519312620162964 0.83172148466110229
vn 0 0.38235035538673401 -0.92401742935180664
vn 0 0.3823573887348175 0.92401450872421265
vn 0 0.19490234553813934 -0.98082262277603149
vn 0 0.19490087032318115 0.98082292079925537
vn -0.11456073075532913 0.15767930448055267 -0.98082268238067627
vn -0.11456073075532913 -0.15767930448055267 -0.98082268238067627
vn -0.11455986648797989 0.15767811238765717 0.98082292079925537
vn -0.11455986648797989 -0.15767811238765717 0.98082292079925537
vn -0.18536315858364105 0.060228131711483002 -0.98082262277603149
vn -0.18536315858364105 -0.060228131711483002 -0.98082262277603149
vn -0.18536175787448883 0.060227677226066589 0.98082292079925537
vn -0.18536175787448883 -0.060227677226066589 0.98082292079925537
vn -0.22473989427089691 0.30932793021202087 -0.92401742935180664
vn -0.22473990917205811 -0.30932793021202087 -0.92401742935180664
vn -0.22474400699138641 0.30933359265327454 0.92401450872421265
vn -0.22474400699138641 -0.30933359265327454 0.92401450872421265
vn -0.32633262872695923 0.44915834069252014 -0.83172339200973511
vn -0.32633259892463684 -0.44915834069252014 -0.83172339200973511
vn -0.32633432745933533 0.44916063547134399 0.83172148466110229
vn -0.32633432745933533 -0.44916063547134399 0.83172148466110229
vn -0.36363682150840759 0.11815273761749268 -0.92401742935180664
vn -0.36363682150840759 -0.11815273761749268 -0.92401742935180664
vn -0.36364349722862244 0.11815490573644638 0.92401450872421265
vn -0.36364349722862244 -0.11815490573644638 0.92401450872421265
vn -0.41542679071426392 0.57178598642349243 -0.7074471116065979
vn -0.4154268205165863 -0.57178598642349243 -0.70744705200195313
vn -0.41542667150497437 0.57178574800491333 0.707447350025177
vn -0.41542667150497437 -0.57178574800491333 0.707447350025177
vn -0.48858219385147095 0.67247569561004639 -0.55593514442443848
vn -0.48858216404914856 -0.67247569561004639 -0.55593514442443848
vn -0.48858281970024109 0.67247658967971802 0.55593347549438477
vn -0.48858281970024109 -0.67247658967971802 0.55593347549438477
vn -0.52801734209060669 0.17156320810317993 -0.83172339200973511
vn -0.52801734209060669 -0.17156320810317993 -0.83172339200973511
vn -0.52802002429962158 0.17156407237052917 0.83172148466110229
vn -0.52802002429962158 -0.17156407237052917 0.83172148466110229
vn -0.54296934604644775 0.74733322858810425 -0.3829846978187561
vn -0.54296934604644775 -0.74733322858810425 -0.3829846978187561
vn -0.54296869039535522 0.74733227491378784 0.38298749923706055
vn -0.54296869039535522 -0.74733227491378784 0.38298749923706055
vn -0.57647114992141724 0.79344445466995239 -0.19526104629039764
vn -0.57647114992141724 -0.79344445466995239 -0.19526104629039764
vn -0.57647091150283813 0.79344409704208374 0.19526322185993195
vn -0.57647091150283813 -0.79344409704208374 0.19526322185993195
vn -0.58707690238952637 0.80804204940795898 -0.049079354852437973
vn -0.58707690238952637 -0.80804198980331421 -0.049079358577728271
vn -0.58707690238952637 0.80804204940795898 0.049078956246376038
vn -0.58707690238952637 -0.80804204940795898 0.049078956246376038
vn -0.67217475175857544 0.21840278804302216 -0.70744705200195313
vn -0.67217475175857544 -0.21840278804302216 -0.70744705200195313
vn -0.67217451333999634 0.21840271353721619 0.70744729042053223
vn -0.67217451333999634 -0.21840271353721619 0.70744729042053223
vn -0.7905426025390625 0.2568628191947937 -0.55593514442443848
vn -0.7905426025390625 -0.2568628191947937 -0.55593514442443848
vn -0.79054361581802368 0.25686317682266235 0.55593347549438477
vn -0.79054361581802368 -0.25686317682266235 0.55593347549438477
vn -0.87854295969009399 0.2854558527469635 -0.38298460841178894
vn -0.87854295969009399 -0.2854558527469635 -0.38298460841178894
vn -0.87854182720184326 0.28545552492141724 0.38298740983009338
vn -0.87854182720184326 -0.28545552492141724 0.38298740983009338
vn -0.93274992704391479 0.30306878685951233 -0.19526104629039764
vn -0.93274992704391479 -0.30306878685951233 -0.19526104629039764
vn -0.93274950981140137 0.30306866765022278 0.19526320695877075
vn -0.93274950981140137 -0.30306866765022278 0.19526320695877075
vn -0.94991040229797363 0.30864453315734863 -0.049079388380050659
vn -0.94991040229797363 -0.30864453315734863 -0.049079388380050659
vn -0.94991040229797363 0.30864459276199341 0.049078986048698425
vn -0.94991040229797363 -0.30864459276199341 0.049078986048698425
f 23//23 21//21 82//82 83//83
f 3//3 1//1 21//21 23//23
f 4//4 2//2 1//1 3//3
f 24//24 22//22 2//2 4//4
f 66//66 65//65 22//22 24//24
f 142//142 140//140 65//65 66//66
f 162//162 160//160 140//140 142//142
f 161//161 159//159 160//160 162//162
f 141//141 139//139 159//159 161//161
f 83//83 82//82 139//139 141//141
f 161//161 157//157 137//137 141//141
f 159//159 139//139 135//135 155//155
f 141//141 137//137 86//86 83//83
f 139//139 82//82 85//85 135//135
f 83//83 86//86 27//27 23//23
f 82//82 21//21 25//25 85//85
f 23//23 27//27 7//7 3//3
f 21//21 1//1 5//5 25//25
f 3//3 7//7 8//8 4//4
f 1//1 2//2 6//6 5//5
f 4//4 8//8 28//28 24//24
f 2//2 22//22 26//26 6//6
f 24//24 28//28 68//68 66//66
f 22//22 65//65 67//67 26//26
f 66//66 68//68 138//138 142//142
f 65//65 140//140 136//136 67//67
f 142//142 138//138 158//158 162//162
f 140//140 160//160 156//156 136//136
f 162//162 158//158 157//157 161//161
f 160//160 159//159 155//155 156//156
f 157//157 153//153 133//133 137//137
f 155//155 135//135 131//131 151//151
f 137//137 133//133 88//88 86//86
f 135//135 85//85 87//87 131//131
f 86//86 88//88 31//31 27//27
f 85//85 25//25 29//29 87//87
f 27//27 31//31 11//11 7//7
f 25//25 5//5 9//9 29//29
f 7//7 11//11 12//12 8//8
f 5//5 6//6 10//10 9//9
f 8//8 12//12 32//32 28//28
f 6//6 26//26 30//30 10//10
f 28//28 32//32 70//70 68//68
f 26//26 67//67 69//69 30//30
f 68//68 70//70 134//134 138//138
f 67//67 136//136 132//132 69//69
f 138//138 134//134 154//154 158//158
f 136//136 156//156 152//152 132//132
f 158//158 154//154 153//153 157//157
f 156//156 155//155 151//151 152//152
f 153//153 149//149 125//125 133//133
f 151//151 131//131 123//123 147//147
f 133//133 125//125 90//90 88//88
f 131//131 87//87 89//89 123//123
f 88//88 90//90 39//39 31//31
f 87//87 29//29 37//37 89//89
f 31//31 39//39 15//15 11//11
f 29//29 9//9 13//13 37//37
f 11//11 15//15 16//16 12//12
f 9//9 10//10 14//14 13//13
f 12//12 16//16 40//40 32//32
f 10//10 30//30 38//38 14//14
f 32//32 40//40 72//72 70//70
f 30//30 69//69 71//71 38//38
f 70//70 72//72 126//126 134//134
f 69//69 132//132 124//124 71//71
f 134//134 126//126 150//150 154//154
f 132//132 152//152 148//148 124//124
f 154//154 150//150 149//149 153//153
f 152//152 151//151 147//147 148//148
f 149//149 145//145 121//121 125//125
f 147//147 123//123 119//119 143//143
f 125//125 121//121 92//92 90//90
f 123//123 89//89 91//91 119//119
f 90//90 92//92 43//43 39//39
f 89//89 37//37 41//41 91//91
f 39//39 43//43 19//19 15//15
f 37//37 13//13 17//17 41//41
f 15//15 19//19 20//20 16//16
f 13//13 14//14 18//18 17//17
f 16//16 20//20 44//44 40//40
f 14//14 38//38 42//42 18//18
f 40//40 44//44 74//74 72//72
f 38//38 71//71 73//73 42//42
f 72//72 74//74 122//122 126//126
f 71//71 124//124 120//120 73//73
f 126//126 122//122 146//146 150//150
f 124//124 148//148 144//144 120//120
f 150//150 146//146 145//145 149//149
f 148//148 147//147 143//143 144//144
f 145//145 129//129 113//113 121//121
f 143//143 119//119 111//111 127//127
f 121//121 113//113 94//94 92//92
f 119//119 91//91 93//93 111//111
f 92//92 94//94 51//51 43//43
f 91//91 41//41 49//49 93//93
f 43//43 51//51 35//35 19//19
f 41//41 17//17 33//33 49//49
f 19//19 35//35 36//36 20//20
f 17//17 18//18 34//34 33//33
f 20//20 36//36 52//52 44//44
f 18//18 42//42 50//50 34//34
f 44//44 52//52 76//76 74//74
f 42//42 73//73 75//75 50//50
f 74//74 76//76 114//114 122//122
f 73//73 120//120 112//112 75//75
f 122//122 114//114 130//130 146//146
f 120//120 144//144 128//128 112//112
f 146//146 130//130 129//129 145//145
f 144//144 143//143 127//127 128//128
f 129//129 117//117 109//109 113//113
f 127//127 111//111 107//107 115//115
f 113//113 109//109 96//96 94//94
f 111//111 93//93 95//95 107//107
f 94//94 96//96 55//55 51//51
f 93//93 49//49 53//53 95//95
f 51//51 55//55 47//47 35//35
f 49//49 33//33 45//45 53//53
f 35//35 47//47 48//48 36//36
f 33//33 34//34 46//46 45//45
f 36//36 48//48 56//56 52//52
f 34//34 50//50 54//54 46//46
f 52//52 56//56 78//78 76//76
f 50//50 75//75 77//77 54//54
f 76//76 78//78 110//110 114//114
f 75//75 112//112 108//108 77//77
f 114//114 110//110 118//118 130//130
f 112//112 128//128 116//116 108//108
f 130//130 118//118 117//117 129//129
f 128//128 127//127 115//115 116//116
f 117//117 105//105 101//101 109//109
f 115//115 107//107 99//99 103//103
f 109//109 101//101 98//98 96//96
f 107//107 95//95 97//97 99//99
f 96//96 98//98 63//63 55//55
f 95//95 53//53 61//61 97//97
f 55//55 63//63 59//59 47//47
f 53//53 45//45 57//57 61//61
f 47//47 59//59 60//60 48//48
f 45//45 46//46 58//58 57//57
f 48//48 60//60 64//64 56//56
f 46//46 54//54 62//62 58//58
f 56//56 64//64 80//80 78//78
f 54//54 77//77 79//79 62//62
f 78//78 80//80 102//102 110//110
f 77//77 108//108 100//100 79//79
f 110//110 102//102 106//106 118//118
f 108//108 116//116 104//104 100//100
f 118//118 106//106 105//105 117//117
f 116//116 115//115 103//103 104//104
f 102//102 84//84 106//106
f 100//100 104//104 81//81
f 80//80 84//84 102//102
f 79//79 100//100 81//81
f 64//64 84//84 80//80
f 62//62 79//79 81//81
f 60//60 84//84 64//64
f 58//58 62//62 81//81
f 59//59 84//84 60//60
f 57//57 58//58 81//81
f 63//63 84//84 59//59
f 61//61 57//57 81//81
f 98//98 84//84 63//63
f 97//97 61//61 81//81
f 101//101 84//84 98//98
f 99//99 97//97 81//81
f 105//105 84//84 101//101
f 103//103 99//99 81//81
f 105//105 106//106 84//84
f 103//103 81//81 104//104
